<svg xmlns="http://www.w3.org/2000/svg" width="407" height="406" viewBox="0 0 407 406">
  <defs>
    <style>
      .cls-1 {
        fill-rule: evenodd;
      }
    </style>
  </defs>
  <path id="SOCIETY_copy" data-name="SOCIETY copy" class="cls-1" d="M26.687,186.424l2-10.125,35.084,6.922,1.684-8.535-35.084-6.922,2.079-10.537L24.206,155.6l-5.76,29.2Zm17.935-76.612L60.3,118.289l-9.39,17.363-15.675-8.476-4.138,7.652,38.844,21.007,4.138-7.653L58.3,139.648l9.39-17.363,15.78,8.533,4.138-7.652L48.761,102.159Zm50.588,4.54L117.65,93.021l-5.787-6.088L95.729,102.27l-6.573-6.915L102.9,82.292,97.111,76.2,83.369,89.267l-6.49-6.828L92.4,67.682l-5.787-6.088L64.786,82.345ZM169.251,45.1l-15.634,5.086,2.6,7.988,7.246-2.357,1.652,5.078a8.352,8.352,0,0,1-2.241,1.644,20.113,20.113,0,0,1-3.169,1.315,18.415,18.415,0,0,1-5.9.972,13.145,13.145,0,0,1-5.21-1.081,11.973,11.973,0,0,1-4.19-3.085,13.951,13.951,0,0,1-2.762-5,18.327,18.327,0,0,1-1.008-6.2,11.365,11.365,0,0,1,1.327-5.132,12.033,12.033,0,0,1,3.587-4.006,20.5,20.5,0,0,1,5.769-2.823,16.318,16.318,0,0,1,3.259-.65,33.235,33.235,0,0,1,3.787-.191,17.482,17.482,0,0,1,3.11.25l0.176-8.575a25.637,25.637,0,0,0-6.421-.34,30.7,30.7,0,0,0-7.705,1.529,25.841,25.841,0,0,0-7.742,4.033,20.19,20.19,0,0,0-5.539,6.439,20.983,20.983,0,0,0-2.435,8.616,27.69,27.69,0,0,0,1.518,10.58,21.994,21.994,0,0,0,4.176,7.6,19.143,19.143,0,0,0,6.538,4.971,21.643,21.643,0,0,0,8.392,1.939,27.982,27.982,0,0,0,9.735-1.495,22.334,22.334,0,0,0,3.969-1.764,37.766,37.766,0,0,0,3.889-2.5,26.345,26.345,0,0,0,3.188-2.709,9.077,9.077,0,0,0,1.81-2.387Zm16.533-23.012L186.5,66.243l8.7-.141-0.228-14.038,6.239-.1a18.128,18.128,0,0,0,7.417-1.47,13.1,13.1,0,0,0,4.772-3.648,14,14,0,0,0,2.56-4.962,18.74,18.74,0,0,0,.722-5.412,15.835,15.835,0,0,0-1.24-6.131,12.774,12.774,0,0,0-3.405-4.625,15.008,15.008,0,0,0-5.478-2.912,23.923,23.923,0,0,0-7.4-.93Zm9.051,21.576-0.216-13.318,6.239-.1a7.251,7.251,0,0,1,3.642.721,5.34,5.34,0,0,1,2.041,1.887,7.168,7.168,0,0,1,.906,2.236,10.256,10.256,0,0,1,.24,1.826,7.333,7.333,0,0,1-.3,2.075,6.928,6.928,0,0,1-1.046,2.147,5.631,5.631,0,0,1-2.042,1.713,7.34,7.34,0,0,1-3.289.713Zm4.051,5.575,11.431,16.617,10.138-.164-11.2-16.861Zm29.654,4.354a22.584,22.584,0,0,0,7.81,15.067,22.77,22.77,0,0,0,16.643,5.279,23.254,23.254,0,0,0,8.352-2.418,22.467,22.467,0,0,0,6.857-5.347,21.767,21.767,0,0,0,4.336-7.815,21.483,21.483,0,0,0,.925-8.771,23.2,23.2,0,0,0-2.5-8.379,23.619,23.619,0,0,0-5.394-6.9,22.071,22.071,0,0,0-16.643-5.279,22.877,22.877,0,0,0-8.331,2.55,23.247,23.247,0,0,0-6.79,5.431,21.788,21.788,0,0,0-4.271,7.709A22.071,22.071,0,0,0,228.54,53.594Zm12.228-11.165a13.888,13.888,0,0,1,4.115-3.447,13.3,13.3,0,0,1,5.034-1.582,13.237,13.237,0,0,1,13.353,7.414A14.836,14.836,0,0,1,257.278,64,12.707,12.707,0,0,1,247,65.051a13.378,13.378,0,0,1-8.108-6.884,14.125,14.125,0,0,1-1.442-5.178,14.276,14.276,0,0,1,.66-5.55A15.017,15.017,0,0,1,240.768,42.428ZM280.581,92.06L307.69,78.939l4.429-11.794-19.3,10.664,0.69,1.337,10.215-27.437-7.905-6.445Zm17.7,14.276,42.135-24.714-7.254-5.915L310.088,91.19l1.058,1.172,8.53-27.649-6.7-5.459Zm46.539-3.867,5.337,8.832L319.551,129.8l4.5,7.446,30.606-18.495,5.554,9.193,7.19-4.345L352.01,98.124Zm38.315,68.711-17.3,4.286-4.747-19.161,17.3-4.285-2.092-8.445L333.432,154.2l2.092,8.445,17.413-4.315,4.748,19.161L340.271,181.8l2.092,8.445,42.864-10.62ZM109.35,315.72A30.283,30.283,0,0,0,107.2,309.4a24.922,24.922,0,0,0-5.3-6.98,16.807,16.807,0,0,0-6.415-3.746,12.157,12.157,0,0,0-6.578-.2,12.6,12.6,0,0,0-5.89,3.547,10.759,10.759,0,0,0-3.319,9.4,21.56,21.56,0,0,0,1.14,4.616q0.824,2.243,1.731,4.229a19.191,19.191,0,0,1,1.194,3.363,9,9,0,0,1,.279,3.053A3.741,3.741,0,0,1,82.982,329a4.123,4.123,0,0,1-2.853,1.4,5.812,5.812,0,0,1-2.955-.761,11.513,11.513,0,0,1-2.561-1.889,13.719,13.719,0,0,1-2.1-2.74,20.494,20.494,0,0,1-1.683-3.551,20.922,20.922,0,0,1-1.006-3.81l-7.493,2.139a26.372,26.372,0,0,0,4.154,10.022,26.816,26.816,0,0,0,3.3,3.962,17.613,17.613,0,0,0,7.143,4.546,12.694,12.694,0,0,0,6.9.263,11.861,11.861,0,0,0,5.617-3.228,14.145,14.145,0,0,0,3.125-4.458,10.808,10.808,0,0,0,.856-4.292,14.3,14.3,0,0,0-.691-4.132,33.8,33.8,0,0,0-1.516-3.891,42.807,42.807,0,0,1-1.666-4.081,11.819,11.819,0,0,1-.73-3.791,3.841,3.841,0,0,1,1.08-2.851,3.906,3.906,0,0,1,3.553-1.3,7.6,7.6,0,0,1,3.964,2.3,15.041,15.041,0,0,1,2.854,4.071,33.148,33.148,0,0,1,2.057,5.224Zm-6.828,29.047a22.581,22.581,0,0,0,4.9,16.248,22.767,22.767,0,0,0,15.385,8.255,23.246,23.246,0,0,0,8.654-.838,22.479,22.479,0,0,0,7.726-3.992,21.775,21.775,0,0,0,5.7-6.883,21.488,21.488,0,0,0,2.525-8.45,23.2,23.2,0,0,0-.917-8.7,23.637,23.637,0,0,0-4.031-7.78,22.073,22.073,0,0,0-15.385-8.255,22.894,22.894,0,0,0-8.659.972,23.281,23.281,0,0,0-7.674,4.088,21.773,21.773,0,0,0-5.618,6.791A22.078,22.078,0,0,0,102.522,344.767Zm14.076-8.721a13.868,13.868,0,0,1,4.679-2.63,13.3,13.3,0,0,1,5.239-.628,13.744,13.744,0,0,1,9.411,5.049,12.989,12.989,0,0,1,2.348,4.7,14.835,14.835,0,0,1-9.424,17.754,12.708,12.708,0,0,1-10.3-.86,13.383,13.383,0,0,1-6.7-8.26,14.153,14.153,0,0,1,1.208-10.689A15,15,0,0,1,116.6,336.046Zm69.1,41.092a13.8,13.8,0,0,1-4.221,1.64,14.624,14.624,0,0,1-6.166-.013,14.052,14.052,0,0,1-5.2-2.029,11.783,11.783,0,0,1-3.553-3.638,12.945,12.945,0,0,1-1.776-4.949,17.43,17.43,0,0,1,.175-5.892A14.793,14.793,0,0,1,167,357a14.409,14.409,0,0,1,3.576-3.869,12.6,12.6,0,0,1,4.564-2.155,11.555,11.555,0,0,1,4.941-.129,12.793,12.793,0,0,1,5.4,2.28,25.011,25.011,0,0,1,3.476,3.074l4.9-7.435a27.24,27.24,0,0,0-5-3.578,23.723,23.723,0,0,0-7.5-2.649,22.228,22.228,0,0,0-8.92.013,19.7,19.7,0,0,0-7.576,3.383,21.123,21.123,0,0,0-5.66,6.313,26.8,26.8,0,0,0-3.231,8.791,23.674,23.674,0,0,0-.108,8.591,21.205,21.205,0,0,0,2.961,7.71,20.369,20.369,0,0,0,5.934,6.046,24.843,24.843,0,0,0,8.812,3.6,21.986,21.986,0,0,0,6.264.46,24.306,24.306,0,0,0,5.023-.877,16.889,16.889,0,0,0,2.926-1.092Zm22.2,12.067,8.695-.277-1.408-44.138-8.695.278Zm32.041-2.494,29.993-7.678-2.083-8.137-21.565,5.519-2.366-9.242,18.368-4.7-2.083-8.138-18.368,4.7-2.336-9.126,20.751-5.312-2.083-8.137-29.179,7.469Zm29.339-45.856,9.017-5.021,17.4,31.243,7.6-4.233L285.9,331.6l9.383-5.226-4.087-7.338-3.2,1.781-22.8,12.7Zm68.139-3.367,6.234-6.068-9.584-9.845-9.354-33.349-7.695,7.492L325.1,320.1l1.723-1.928L302.664,309.7l-7.695,7.491,32.87,10.455ZM203.125,0c112.114,0,203,90.886,203,203s-90.886,203-203,203-203-90.886-203-203S91.011,0,203.125,0ZM204,81A122,122,0,1,1,82,203,122,122,0,0,1,204,81Z"/>
</svg>
